<?xml version="1.0" encoding="UTF-8"?>
<svg id="Layer_1" xmlns="http://www.w3.org/2000/svg" xmlns:xlink="http://www.w3.org/1999/xlink" version="1.1" viewBox="0 0 277.5 95.7">
  <!-- Generator: Adobe Illustrator 29.3.1, SVG Export Plug-In . SVG Version: 2.1.0 Build 151)  -->
  <defs>
    <style>
      .st0 {
        fill: url(#linear-gradient2);
      }

      .st1 {
        fill: url(#linear-gradient1);
      }

      .st2 {
        fill: url(#linear-gradient3);
      }

      .st3 {
        fill: url(#linear-gradient5);
      }

      .st4 {
        fill: url(#linear-gradient4);
      }

      .st5 {
        fill: #f49e1e;
      }

      .st5, .st6 {
        stroke: #14192b;
        stroke-miterlimit: 10;
        stroke-width: .2px;
      }

      .st7 {
        fill: url(#linear-gradient);
      }

      .st8 {
        fill: #424555;
      }

      .st6 {
        fill: #44b75e;
      }
    </style>
    <linearGradient id="linear-gradient" x1="37.7" y1="11.5" x2="-15.8" y2="64.9" gradientTransform="translate(0 98) scale(1 -1)" gradientUnits="userSpaceOnUse">
      <stop offset="0" stop-color="#fcd34d"/>
      <stop offset="0" stop-color="#fbcd46"/>
      <stop offset="0" stop-color="#f8bc30"/>
      <stop offset="0" stop-color="#f7ae1f"/>
      <stop offset="0" stop-color="#f5a413"/>
      <stop offset="0" stop-color="#f59f0c"/>
      <stop offset="0" stop-color="#f59e0b"/>
      <stop offset="0" stop-color="#f5a210"/>
      <stop offset="0" stop-color="#f7b427"/>
      <stop offset=".2" stop-color="#f9c238"/>
      <stop offset=".3" stop-color="#fbcb44"/>
      <stop offset=".5" stop-color="#fbd14b"/>
      <stop offset="1" stop-color="#fcd34d"/>
    </linearGradient>
    <linearGradient id="linear-gradient1" x1="68" y1="1.2" x2="27.9" y2="41.2" gradientTransform="translate(0 98) scale(1 -1)" gradientUnits="userSpaceOnUse">
      <stop offset="0" stop-color="#fcd34d"/>
      <stop offset="0" stop-color="#fbcd46"/>
      <stop offset="0" stop-color="#f8bc30"/>
      <stop offset="0" stop-color="#f7ae1f"/>
      <stop offset="0" stop-color="#f5a413"/>
      <stop offset="0" stop-color="#f59f0c"/>
      <stop offset="0" stop-color="#f59e0b"/>
      <stop offset="0" stop-color="#f5a210"/>
      <stop offset="0" stop-color="#f7b427"/>
      <stop offset=".2" stop-color="#f9c238"/>
      <stop offset=".3" stop-color="#fbcb44"/>
      <stop offset=".5" stop-color="#fbd14b"/>
      <stop offset="1" stop-color="#fcd34d"/>
    </linearGradient>
    <linearGradient id="linear-gradient2" x1="112.1" y1="-.6" x2="71" y2="40.5" gradientTransform="translate(0 98) scale(1 -1)" gradientUnits="userSpaceOnUse">
      <stop offset="0" stop-color="#fcd34d"/>
      <stop offset="0" stop-color="#fbcd46"/>
      <stop offset="0" stop-color="#f8bc30"/>
      <stop offset="0" stop-color="#f7ae1f"/>
      <stop offset="0" stop-color="#f5a413"/>
      <stop offset="0" stop-color="#f59f0c"/>
      <stop offset="0" stop-color="#f59e0b"/>
      <stop offset="0" stop-color="#f5a210"/>
      <stop offset="0" stop-color="#f7b427"/>
      <stop offset=".2" stop-color="#f9c238"/>
      <stop offset=".3" stop-color="#fbcb44"/>
      <stop offset=".5" stop-color="#fbd14b"/>
      <stop offset="1" stop-color="#fcd34d"/>
    </linearGradient>
    <linearGradient id="linear-gradient3" x1="172.3" y1="-7.7" x2="122.4" y2="42.2" gradientTransform="translate(0 98) scale(1 -1)" gradientUnits="userSpaceOnUse">
      <stop offset="0" stop-color="#fcd34d"/>
      <stop offset="0" stop-color="#fbcd46"/>
      <stop offset="0" stop-color="#f8bc30"/>
      <stop offset="0" stop-color="#f7ae1f"/>
      <stop offset="0" stop-color="#f5a413"/>
      <stop offset="0" stop-color="#f59f0c"/>
      <stop offset="0" stop-color="#f59e0b"/>
      <stop offset="0" stop-color="#f5a210"/>
      <stop offset="0" stop-color="#f7b427"/>
      <stop offset=".2" stop-color="#f9c238"/>
      <stop offset=".3" stop-color="#fbcb44"/>
      <stop offset=".5" stop-color="#fbd14b"/>
      <stop offset="1" stop-color="#fcd34d"/>
    </linearGradient>
    <linearGradient id="linear-gradient4" x1="228.7" y1="8" x2="174.9" y2="61.8" gradientTransform="translate(0 98) scale(1 -1)" gradientUnits="userSpaceOnUse">
      <stop offset="0" stop-color="#fcd34d"/>
      <stop offset="0" stop-color="#fbcd46"/>
      <stop offset="0" stop-color="#f8bc30"/>
      <stop offset="0" stop-color="#f7ae1f"/>
      <stop offset="0" stop-color="#f5a413"/>
      <stop offset="0" stop-color="#f59f0c"/>
      <stop offset="0" stop-color="#f59e0b"/>
      <stop offset="0" stop-color="#f5a210"/>
      <stop offset="0" stop-color="#f7b427"/>
      <stop offset=".2" stop-color="#f9c238"/>
      <stop offset=".3" stop-color="#fbcb44"/>
      <stop offset=".5" stop-color="#fbd14b"/>
      <stop offset="1" stop-color="#fcd34d"/>
    </linearGradient>
    <linearGradient id="linear-gradient5" x1="282.7" y1="7.5" x2="228.9" y2="61.2" gradientTransform="translate(0 98) scale(1 -1)" gradientUnits="userSpaceOnUse">
      <stop offset="0" stop-color="#fcd34d"/>
      <stop offset="0" stop-color="#fbcd46"/>
      <stop offset="0" stop-color="#f8bc30"/>
      <stop offset="0" stop-color="#f7ae1f"/>
      <stop offset="0" stop-color="#f5a413"/>
      <stop offset="0" stop-color="#f59f0c"/>
      <stop offset="0" stop-color="#f59e0b"/>
      <stop offset="0" stop-color="#f5a210"/>
      <stop offset="0" stop-color="#f7b427"/>
      <stop offset=".2" stop-color="#f9c238"/>
      <stop offset=".3" stop-color="#fbcb44"/>
      <stop offset=".5" stop-color="#fbd14b"/>
      <stop offset="1" stop-color="#fcd34d"/>
    </linearGradient>
  </defs>
  <g>
    <path class="st7" d="M28.3,83.3c.3,0,.5,0,.5.4v11.5c0,.3-.2.5-.5.5H0V17.3h15.4v66h12.9Z"/>
    <path class="st1" d="M27.2,83.3h12.9v-38.7h15.4v38.7h13.4c.3,0,.5,0,.5.4v11.5c0,.3-.2.5-.5.5H27.2"/>
    <path class="st0" d="M67.9,83.3h16v-38.7h15.4v38.7h15.5c.3,0,.5,0,.5.4v11.5c0,.3-.2.5-.5.5h-46.9"/>
    <path class="st2" d="M113.7,83.3h11.7c-.9-2.1-1.6-4.4-2.1-6.8s-.7-4.9-.7-7.5.5-6.2,1.5-9.6,2.3-6.5,3.8-8.9c3.3-1.9,6.8-3.4,10.6-4.4,3.7-1,7-1.5,9.9-1.5s4.6.3,6.7.8c2.1.5,4.2,1.3,6.1,2.2,3.9,2,6.8,4.8,9,8.5,2.1,3.7,3.2,8,3.2,12.8s-.2,3.8-.5,5.5c-.3,1.8-.8,3.5-1.5,5.1,1.2,1.4,2.7,2.3,4.3,2.9s3.6.8,6,.8h.5c.3,0,.5,0,.5.4v11.5c0,.3-.2.5-.5.5h-.5c-3.6,0-6.8-.5-9.5-1.5s-5.2-2.8-7.5-5.4c-2.6,2.3-5.6,4-9,5.2s-6.9,1.8-10.5,1.8h-31.4M136.8,71.2c0,1.7.2,3.6.6,5.6.4,2,1,4.2,1.8,6.4h3.9c2.8,0,5.2-.6,7.4-1.9s4-3,5.3-5.2,2-4.6,2-7.2-.9-6.6-2.7-8.7c-1.8-2.2-4.2-3.3-7.1-3.3s-3.1.2-4.7.7c-1.6.5-3.3,1.2-4.9,2.2-.5,1.8-.9,3.6-1.1,5.5-.3,1.9-.4,3.8-.4,5.8h-.1Z"/>
    <path class="st4" d="M181.1,83.3h12.9V17.3h15.4v66h13.4c.3,0,.5,0,.5.4v11.5c0,.3-.2.5-.5.5h-41.7"/>
    <path class="st3" d="M221.8,83.3h40.4v-16.6c0-4.1-1.4-7.3-4.3-9.5s-6.9-3.4-12.1-3.4h-17.5v-11.1c1.2-2.4,2.4-4.7,3.8-6.9,1.4-2.2,2.9-4.3,4.6-6.3,3.9-4.5,8.3-8.6,13.4-12.1,5.1-3.5,10.6-6.4,16.7-8.6l5.7,13.8c-3,.9-5.9,2-8.7,3.4-2.9,1.4-5.5,2.9-8,4.6s-4.7,3.4-6.7,5.3c-1.9,1.8-3.5,3.7-4.7,5.5h3.9c9.8,0,17.2,1.9,22.1,5.8,4.9,3.9,7.3,9.7,7.3,17.5v31h-55.7"/>
  </g>
  <rect class="st8" x="91.8" y="17.3" width="13.5" height="13.5" rx="1.6" ry="1.6"/>
  <rect class="st6" x="75.6" y="17.3" width="13.5" height="13.5" rx="1.6" ry="1.6"/>
  <rect class="st5" x="40.5" y="17.3" width="13.5" height="13.5" rx="1.6" ry="1.6"/>
</svg>